# xmcd
#
# Track frame offsets: 
#        150
#        11772
#        24842
#        37012
#        46590
#        59135
#        74700
#        86192
#        100808
#        116102
#        126900
#        138813
#        151142
#        162734
#        174401
#        185620
#        197921
#        208461
#        219781
#        233756
#        245357
#        259292
#        272601
#        286241
#        297633
#        308624
#        320080
#        331012
#        343620
#
# Disc length: 4751 seconds
#
# Revision: 0
# Processed by: cddbd v1.5.2PL0 Copyright (c) Steve Scherf et al.
# Submitted via: ExactAudioCopyFreeDBPlugin 1.0
#
DISCID=be128d1d
DTITLE=Various Artist - VA - Really the Blues - Disc 27
DYEAR=1900
DGENRE=50s
TTITLE0=Clovers - Fool Fool Fool
TTITLE1=Lula Reed - I'll Drown in My Tears
TTITLE2=Kay Starr - Tonight You Belong to Me
TTITLE3=Jimmy Dolan - Juke Box Boogie
TTITLE4=Manny Nichols - No One to Love Me
TTITLE5=Lawson and Scott - Got My Call Card
TTITLE6=Calvin Newborne - Juiced
TTITLE7=Floyd Jones - Dark Road
TTITLE8=Billy Wright - Turn Your Lamp Down Low
TTITLE9=Percy Mayfield - Lonesome Highway
TTITLE10=Junior Parker - Love My Baby
TTITLE11=Charlie Booker - Walked All Night
TTITLE12=Sonny Boy Holmes - TNT Woman
TTITLE13=Papa Lightfoot  - When the Saints Go Marching In
TTITLE14=Bill Webb - I Ain't for It
TTITLE15=Big Joe Williams - Mama Don't Allow Me
TTITLE16=Willie Love and Joe Willie Wilkins - Everybody's Fishin'
TTITLE17=Dave Bartholomew and Tommy Ridgely - Lawdy Lawdy Lawdy
TTITLE18=Thelonious Monk - Little Rootie Tootie
TTITLE19=James Peck with Sonny Boy Williamson - Bus Fare
TTITLE20=Bobby Bland with Matt Murphy - Drifting from Town to Town
TTITLE21=Ruth Brown - Daddy Daddy Daddy
TTITLE22=Gil Melle - The Gears
TTITLE23=Flo Garvin - I'm on the Outside Looking In
TTITLE24=Smiley Lewis - It's So Peaceful
TTITLE25=Dorothy Love Coates - One Morning Soon
TTITLE26=Dudlow and Peck Curtis - 44 Blues
TTITLE27=Stan Kenton - A Lonesome Train
TTITLE28=Eddie Jefferson - The Birdland Story
EXTD=
EXTT0=
EXTT1=
EXTT2=
EXTT3=
EXTT4=
EXTT5=
EXTT6=
EXTT7=
EXTT8=
EXTT9=
EXTT10=
EXTT11=
EXTT12=
EXTT13=
EXTT14=
EXTT15=
EXTT16=
EXTT17=
EXTT18=
EXTT19=
EXTT20=
EXTT21=
EXTT22=
EXTT23=
EXTT24=
EXTT25=
EXTT26=
EXTT27=
EXTT28=
PLAYORDER=
